<svg width="119" height="177" viewBox="0 0 119 177" fill="none" xmlns="http://www.w3.org/2000/svg">
<path d="M35.9875 11.928H27.0275C26.6008 11.928 26.2382 12.0773 25.9395 12.376C25.6408 12.6747 25.4915 13.0373 25.4915 13.464V45.464C25.4915 45.8907 25.3422 46.2533 25.0435 46.552C24.7875 46.8507 24.4248 47 23.9555 47H14.3555C13.9288 47 13.5662 46.8507 13.2675 46.552C12.9688 46.2533 12.8195 45.8907 12.8195 45.464V13.464C12.8195 13.0373 12.6702 12.6747 12.3715 12.376C12.1155 12.0773 11.7528 11.928 11.2835 11.928H2.1955C1.76883 11.928 1.40617 11.7787 1.1075 11.48C0.808833 11.1813 0.6595 10.8187 0.6595 10.392V1.688C0.6595 1.26133 0.808833 0.898664 1.1075 0.599998C1.40617 0.301331 1.76883 0.151997 2.1955 0.151997H35.9875C36.4568 0.151997 36.8195 0.301331 37.0755 0.599998C37.3742 0.898664 37.5235 1.26133 37.5235 1.688V10.392C37.5235 10.8187 37.3742 11.1813 37.0755 11.48C36.8195 11.7787 36.4568 11.928 35.9875 11.928ZM55.064 13.464V16.152C55.064 16.5787 55.2133 16.9413 55.512 17.24C55.8107 17.5387 56.1733 17.688 56.6 17.688H73.944C74.3707 17.688 74.7333 17.8373 75.032 18.136C75.3307 18.4347 75.48 18.7973 75.48 19.224V28.056C75.48 28.4827 75.3307 28.8453 75.032 29.144C74.7333 29.4427 74.3707 29.592 73.944 29.592H56.6C56.1733 29.592 55.8107 29.7413 55.512 30.04C55.2133 30.3387 55.064 30.7013 55.064 31.128V33.56C55.064 33.9867 55.2133 34.3493 55.512 34.648C55.8107 34.9467 56.1733 35.096 56.6 35.096H76.504C76.9307 35.096 77.2933 35.2453 77.592 35.544C77.8907 35.8427 78.04 36.2053 78.04 36.632V45.464C78.04 45.8907 77.8907 46.2533 77.592 46.552C77.2933 46.8507 76.9307 47 76.504 47H43.928C43.5013 47 43.1387 46.8507 42.84 46.552C42.5413 46.2533 42.392 45.8907 42.392 45.464V1.688C42.392 1.26133 42.5413 0.898664 42.84 0.599998C43.1387 0.301331 43.5013 0.151997 43.928 0.151997H76.504C76.9307 0.151997 77.2933 0.301331 77.592 0.599998C77.8907 0.898664 78.04 1.26133 78.04 1.688V10.392C78.04 10.8187 77.8907 11.1813 77.592 11.48C77.2933 11.7787 76.9307 11.928 76.504 11.928H56.6C56.1733 11.928 55.8107 12.0773 55.512 12.376C55.2133 12.6747 55.064 13.0373 55.064 13.464ZM116.8 11.928H107.84C107.413 11.928 107.051 12.0773 106.752 12.376C106.453 12.6747 106.304 13.0373 106.304 13.464V45.464C106.304 45.8907 106.155 46.2533 105.856 46.552C105.6 46.8507 105.237 47 104.768 47H95.168C94.7413 47 94.3787 46.8507 94.08 46.552C93.7813 46.2533 93.632 45.8907 93.632 45.464V13.464C93.632 13.0373 93.4827 12.6747 93.184 12.376C92.928 12.0773 92.5653 11.928 92.096 11.928H83.008C82.5813 11.928 82.2187 11.7787 81.92 11.48C81.6213 11.1813 81.472 10.8187 81.472 10.392V1.688C81.472 1.26133 81.6213 0.898664 81.92 0.599998C82.2187 0.301331 82.5813 0.151997 83.008 0.151997H116.8C117.269 0.151997 117.632 0.301331 117.888 0.599998C118.187 0.898664 118.336 1.26133 118.336 1.688V10.392C118.336 10.8187 118.187 11.1813 117.888 11.48C117.632 11.7787 117.269 11.928 116.8 11.928ZM24.3425 131.624C24.5132 131.24 24.7905 130.92 25.1745 130.664C25.6012 130.365 26.0492 130.216 26.5185 130.216H35.4785C35.9052 130.216 36.3105 130.365 36.6945 130.664C37.1212 130.92 37.4198 131.24 37.5905 131.624L56.2785 175.144C56.4492 175.528 56.4065 175.933 56.1505 176.36C55.9372 176.787 55.4892 177 54.8065 177H43.8625C43.3932 177 42.9452 176.872 42.5185 176.616C42.1345 176.317 41.8358 175.976 41.6225 175.592L39.8945 171.752C39.6812 171.368 39.3612 171.048 38.9345 170.792C38.5505 170.493 38.1452 170.344 37.7185 170.344H24.2145C23.7452 170.344 23.2972 170.493 22.8705 170.792C22.4865 171.048 22.2092 171.368 22.0385 171.752L20.2465 175.592C20.0758 175.976 19.7772 176.317 19.3505 176.616C18.9665 176.872 18.5612 177 18.1345 177H7.1265C6.91317 177 6.69983 176.957 6.4865 176.872C6.2305 176.787 6.0385 176.659 5.9105 176.488C5.73983 176.317 5.63317 176.104 5.5905 175.848C5.54783 175.592 5.61183 175.293 5.7825 174.952L24.3425 131.624ZM28.1185 159.464H33.8145C34.2412 159.464 34.5398 159.336 34.7105 159.08C34.9238 158.781 34.9238 158.44 34.7105 158.056C34.2838 156.989 33.7718 155.752 33.1745 154.344C32.5772 152.893 32.0225 151.549 31.5105 150.312C31.3398 149.928 31.1478 149.736 30.9345 149.736C30.7212 149.736 30.5292 149.928 30.3585 150.312L27.1585 158.056C26.9878 158.44 26.9878 158.781 27.1585 159.08C27.3292 159.336 27.6492 159.464 28.1185 159.464ZM104.801 131.688V175.464C104.801 175.891 104.651 176.253 104.353 176.552C104.054 176.851 103.691 177 103.265 177H93.7925C93.3658 177 92.9178 176.872 92.4485 176.616C91.9792 176.36 91.6165 176.061 91.3605 175.72L74.6565 152.232C74.4005 151.891 74.1232 151.763 73.8245 151.848C73.5685 151.891 73.4405 152.125 73.4405 152.552V175.464C73.4405 175.891 73.2912 176.253 72.9925 176.552C72.6938 176.851 72.3312 177 71.9045 177H62.3685C61.9418 177 61.5792 176.851 61.2805 176.552C60.9818 176.253 60.8325 175.891 60.8325 175.464V131.688C60.8325 131.261 60.9818 130.899 61.2805 130.6C61.5792 130.301 61.9418 130.152 62.3685 130.152H71.9685C72.3952 130.152 72.8432 130.28 73.3125 130.536C73.7818 130.749 74.1445 131.027 74.4005 131.368L91.0405 154.856C91.2965 155.197 91.5525 155.347 91.8085 155.304C92.1072 155.261 92.2565 155.027 92.2565 154.6V131.688C92.2565 131.261 92.4058 130.899 92.7045 130.6C93.0032 130.301 93.3658 130.152 93.7925 130.152H103.265C103.691 130.152 104.054 130.301 104.353 130.6C104.651 130.899 104.801 131.261 104.801 131.688Z" fill="white"/>
<path d="M10.1893 88.576C10.1893 85.248 10.8293 82.112 12.1093 79.168C13.3893 76.224 15.1173 73.664 17.2933 71.488C19.4693 69.2693 22.0293 67.52 24.9733 66.24C27.9173 64.96 31.0533 64.32 34.3813 64.32C37.7093 64.32 40.8453 64.96 43.7893 66.24C46.7333 67.52 49.2933 69.2693 51.4693 71.488C53.6879 73.664 55.4373 76.224 56.7173 79.168C57.9973 82.112 58.6373 85.248 58.6373 88.576C58.6373 91.904 57.9973 95.04 56.7173 97.984C55.4373 100.928 53.6879 103.509 51.4693 105.728C49.2933 107.904 46.7333 109.632 43.7893 110.912C40.8453 112.192 37.7093 112.832 34.3813 112.832C31.0533 112.832 27.9173 112.192 24.9733 110.912C22.0293 109.632 19.4693 107.904 17.2933 105.728C15.1173 103.509 13.3893 100.928 12.1093 97.984C10.8293 95.04 10.1893 91.904 10.1893 88.576ZM22.8613 88.576C22.8613 90.1973 23.1599 91.7333 23.7573 93.184C24.3546 94.6347 25.1653 95.9147 26.1893 97.024C27.2559 98.1333 28.4933 99.0293 29.9013 99.712C31.3093 100.352 32.8026 100.672 34.3813 100.672C35.9599 100.672 37.4533 100.352 38.8613 99.712C40.2693 99.0293 41.5066 98.1333 42.5732 97.024C43.6399 95.9147 44.4719 94.6347 45.0693 93.184C45.6666 91.7333 45.9653 90.1973 45.9653 88.576C45.9653 86.9973 45.6666 85.4827 45.0693 84.032C44.4719 82.5387 43.6399 81.2587 42.5732 80.192C41.5066 79.0827 40.2693 78.208 38.8613 77.568C37.4533 76.8853 35.9599 76.544 34.3813 76.544C32.8026 76.544 31.3093 76.8853 29.9013 77.568C28.4933 78.208 27.2559 79.0827 26.1893 80.192C25.1653 81.2587 24.3546 82.5387 23.7573 84.032C23.1599 85.4827 22.8613 86.9973 22.8613 88.576Z" fill="#297D75"/>
<path d="M65.2373 66.752C65.2373 66.3253 65.3866 65.9627 65.6853 65.664C65.9839 65.3653 66.3466 65.216 66.7733 65.216H76.4373C76.8639 65.216 77.2266 65.3653 77.5253 65.664C77.8239 65.9627 77.9733 66.3253 77.9733 66.752V92.672C77.9733 94.336 78.2293 95.7227 78.7413 96.832C79.2959 97.8987 79.9573 98.752 80.7253 99.392C81.5359 99.9893 82.3893 100.416 83.2853 100.672C84.1813 100.928 84.9919 101.056 85.7173 101.056C86.4426 101.056 87.2533 100.928 88.1493 100.672C89.0453 100.416 89.8773 99.9893 90.6453 99.392C91.4133 98.752 92.0533 97.8987 92.5653 96.832C93.1199 95.7227 93.3973 94.336 93.3973 92.672V66.752C93.3973 66.3253 93.5466 65.9627 93.8453 65.664C94.1439 65.3653 94.5066 65.216 94.9333 65.216H104.597C105.024 65.216 105.387 65.3653 105.685 65.664C105.984 65.9627 106.133 66.3253 106.133 66.752V92.672C106.133 95.7013 105.643 98.4533 104.661 100.928C103.723 103.403 102.357 105.515 100.565 107.264C98.7733 109.013 96.6186 110.379 94.1012 111.36C91.5839 112.299 88.7893 112.768 85.7173 112.768C82.6453 112.768 79.8506 112.299 77.3333 111.36C74.8159 110.379 72.6613 109.013 70.8693 107.264C69.0773 105.515 67.6906 103.403 66.7093 100.928C65.7279 98.4533 65.2373 95.7013 65.2373 92.672V66.752Z" fill="#AEA08F"/>
</svg>
